<svg width="20" height="20" viewBox="0 0 20 20" fill="none" xmlns="http://www.w3.org/2000/svg">
<rect width="20" height="20" rx="2" fill="#F7F8FF"/>
<path d="M14.2375 6.70527H13.8688C14.0558 6.38858 14.1379 6.08651 14.1116 5.80631C14.0899 5.57181 13.9786 5.23642 13.571 4.96913C13.233 4.747 12.7983 4.69252 12.3161 4.81287C11.5341 5.00902 10.6086 5.68334 10.0001 6.49826C9.39119 5.68335 8.46642 5.00902 7.68444 4.81287C7.20182 4.69174 6.7668 4.7466 6.42884 4.96913C6.02153 5.23642 5.91025 5.57181 5.88851 5.80631C5.8623 6.08651 5.94359 6.38858 6.13132 6.70527H5.76261C5.20434 6.70527 4.75 7.1595 4.75 7.71765V9.0216C4.75 9.46312 5.0415 9.85333 5.46324 9.98437C5.42316 10.0952 5.40218 10.2097 5.40218 10.3258V14.2378C5.40218 14.7956 5.85703 15.25 6.41536 15.25H13.586C14.1442 15.25 14.5984 14.7956 14.5984 14.2378V10.3257C14.5984 10.2089 14.5782 10.094 14.5381 9.98398C14.9592 9.85221 15.25 9.46199 15.25 9.02159V7.71798C15.25 7.15987 14.7958 6.70527 14.2375 6.70527ZM13.5859 14.529H10.3606V10.0341H13.586C13.7467 10.0341 13.8771 10.1651 13.8771 10.3257V14.2378C13.8771 14.3984 13.7467 14.529 13.5859 14.529ZM10.7577 6.70527C11.2707 6.11418 11.944 5.64967 12.4907 5.51265C12.7747 5.44154 13.007 5.46101 13.1753 5.57181C13.354 5.68914 13.3858 5.79376 13.393 5.87277C13.4214 6.16248 13.1104 6.55308 12.9636 6.70527H10.7577ZM14.5283 7.71799V9.0216C14.5283 9.1822 14.3983 9.3128 14.2375 9.3128H10.3606V7.42658H14.2375C14.3983 7.42658 14.5283 7.55742 14.5283 7.71799ZM9.63925 10.0341V14.529H6.41534C6.25421 14.529 6.1238 14.3984 6.1238 14.2378V10.3257C6.1238 10.1651 6.25421 10.0341 6.41534 10.0341H9.63925ZM6.6072 5.87277C6.6143 5.79376 6.64654 5.68913 6.82453 5.57181C6.99162 5.46101 7.22393 5.44059 7.50947 5.51265C8.05315 5.6489 8.72572 6.11345 9.23981 6.70527H7.03584C6.90432 6.5722 6.57833 6.16943 6.6072 5.87277ZM5.4711 7.71799C5.4711 7.55744 5.6015 7.42658 5.7626 7.42658H9.63923V9.3128H5.7626C5.6015 9.3128 5.4711 9.1822 5.4711 9.0216V7.71799Z" fill="#B0B5D2"/>
</svg>
